<?xml version="1.0" standalone="no"?>
<!DOCTYPE svg PUBLIC "-//W3C//DTD SVG 20010904//EN"
 "http://www.w3.org/TR/2001/REC-SVG-20010904/DTD/svg10.dtd">
<svg version="1.0" xmlns="http://www.w3.org/2000/svg"
 width="128.000000pt" height="128.000000pt" viewBox="0 0 128.000000 128.000000"
 preserveAspectRatio="xMidYMid meet">
<metadata>
Created by potrace 1.14, written by Peter Selinger 2001-2017
</metadata>
<g transform="translate(0.000000,128.000000) scale(0.100000,-0.100000)"
fill="#000000" stroke="none">
<path d="M538 1174 c-32 -7 -85 -27 -118 -44 -64 -32 -76 -56 -44 -91 13 -15
22 -16 67 -5 164 36 326 -43 394 -192 17 -36 27 -79 30 -132 l6 -80 -41 20
c-47 23 -63 25 -80 8 -28 -28 -25 -35 125 -249 110 -157 130 -174 167 -135 45
49 236 336 236 355 0 13 -10 26 -24 33 -20 9 -32 7 -65 -11 l-41 -21 -1 48
c-1 26 -2 52 -3 57 -21 130 -66 221 -146 302 -120 121 -302 175 -462 137z"/>
<path d="M258 1023 c-9 -2 -71 -83 -139 -180 -109 -157 -121 -178 -113 -202
12 -34 42 -38 88 -12 l36 21 0 -38 c1 -249 167 -457 406 -507 113 -23 218 -8
326 46 46 23 58 34 58 53 0 39 -22 49 -87 40 -72 -10 -77 -10 -138 0 -106 17
-207 95 -253 194 -17 37 -26 79 -29 133 l-5 80 46 -23 c100 -48 113 33 21 139
-5 6 -46 64 -90 128 -81 119 -97 134 -127 128z"/>
</g>
</svg>
